<mxfile host="app.diagrams.net" modified="2022-04-30T10:13:16.602Z" agent="5.0 (Windows NT 10.0; Win64; x64) AppleWebKit/537.36 (KHTML, like Gecko) Chrome/100.0.4896.127 Safari/537.36" etag="qi5W56mmHAk4nIOMh_T5" version="17.4.6" type="github">
  <diagram name="Page-1" id="929967ad-93f9-6ef4-fab6-5d389245f69c">
    <mxGraphModel dx="4839.5" dy="2650" grid="1" gridSize="10" guides="1" tooltips="1" connect="1" arrows="1" fold="1" page="1" pageScale="1.5" pageWidth="1169" pageHeight="826" background="none" math="0" shadow="1">
      <root>
        <mxCell id="0" style=";html=1;" />
        <mxCell id="1" style=";html=1;" parent="0" />
        <mxCell id="1672d66443f91eb5-1" value="&lt;p style=&quot;margin: 0px ; margin-top: 4px ; margin-left: 10px ; text-align: left&quot;&gt;&lt;b&gt;GTT&lt;/b&gt;&amp;nbsp;[package] QNBAI://StreamProject&#39;s [ِDukeHouser]&lt;/p&gt;" style="html=1;strokeWidth=1;shape=mxgraph.sysml.package;html=1;overflow=fill;whiteSpace=wrap;fillColor=none;gradientColor=none;fontSize=12;align=center;labelX=327.64;" parent="1" vertex="1">
          <mxGeometry x="-1120" y="-326.25" width="2560" height="1006.25" as="geometry" />
        </mxCell>
        <mxCell id="1672d66443f91eb5-7" value="&lt;p&gt;Targeted subject&lt;br&gt;&lt;/p&gt;" style="shape=rect;html=1;overflow=fill;whiteSpace=wrap;align=center;fontStyle=1" parent="1" vertex="1">
          <mxGeometry x="315" y="190" width="160" height="45" as="geometry" />
        </mxCell>
        <mxCell id="1672d66443f91eb5-23" value="#Decentralized network of verbal reasoning://&amp;nbsp; DN" style="text;strokeColor=none;fillColor=none;html=1;fontSize=24;fontStyle=1;verticalAlign=middle;align=center;" parent="1" vertex="1">
          <mxGeometry x="820" y="-320" width="620" height="70" as="geometry" />
        </mxCell>
        <mxCell id="22CTzD5A5342r915eBUS-11" value="Extracted hybrid database" style="shape=umlBoundary;whiteSpace=wrap;html=1;labelBackgroundColor=none;fontSize=10;fontColor=#000000;strokeColor=default;fillColor=none;gradientColor=none;" vertex="1" parent="1">
          <mxGeometry x="560" y="110" width="100" height="80" as="geometry" />
        </mxCell>
        <mxCell id="22CTzD5A5342r915eBUS-12" value="" style="rounded=0;orthogonalLoop=1;jettySize=auto;html=1;endArrow=none;endFill=0;sketch=0;sourcePerimeterSpacing=0;targetPerimeterSpacing=0;fontSize=10;fontColor=#000000;exitX=0.5;exitY=0;exitDx=0;exitDy=0;" edge="1" target="22CTzD5A5342r915eBUS-14" parent="1" source="1672d66443f91eb5-7">
          <mxGeometry relative="1" as="geometry">
            <mxPoint x="310" y="495" as="sourcePoint" />
          </mxGeometry>
        </mxCell>
        <mxCell id="22CTzD5A5342r915eBUS-13" value="" style="rounded=0;orthogonalLoop=1;jettySize=auto;html=1;endArrow=halfCircle;endFill=0;entryX=0.5;entryY=0.5;endSize=6;strokeWidth=1;sketch=0;fontSize=10;fontColor=#000000;exitX=0.004;exitY=0.494;exitDx=0;exitDy=0;exitPerimeter=0;" edge="1" target="22CTzD5A5342r915eBUS-14" parent="1" source="22CTzD5A5342r915eBUS-11">
          <mxGeometry relative="1" as="geometry">
            <mxPoint x="350" y="205" as="sourcePoint" />
          </mxGeometry>
        </mxCell>
        <mxCell id="22CTzD5A5342r915eBUS-14" value="" style="ellipse;whiteSpace=wrap;html=1;align=center;aspect=fixed;resizable=0;points=[];outlineConnect=0;sketch=0;labelBackgroundColor=none;fontSize=10;fontColor=#000000;strokeColor=default;fillColor=#000000;gradientColor=none;" vertex="1" parent="1">
          <mxGeometry x="390" y="145" width="10" height="10" as="geometry" />
        </mxCell>
        <mxCell id="22CTzD5A5342r915eBUS-20" value="&lt;p&gt;Object discovered&lt;br&gt;&lt;/p&gt;" style="shape=rect;html=1;overflow=fill;whiteSpace=wrap;align=center;fontStyle=1" vertex="1" parent="1">
          <mxGeometry x="315" y="317.5" width="160" height="45" as="geometry" />
        </mxCell>
        <mxCell id="22CTzD5A5342r915eBUS-24" value="" style="rounded=0;orthogonalLoop=1;jettySize=auto;html=1;endArrow=none;endFill=0;sketch=0;sourcePerimeterSpacing=0;targetPerimeterSpacing=0;fontSize=10;fontColor=#000000;startArrow=diamondThin;startFill=1;" edge="1" target="22CTzD5A5342r915eBUS-26" parent="1">
          <mxGeometry relative="1" as="geometry">
            <mxPoint x="860" y="190" as="sourcePoint" />
            <Array as="points">
              <mxPoint x="620" y="415" />
            </Array>
          </mxGeometry>
        </mxCell>
        <mxCell id="22CTzD5A5342r915eBUS-25" value="" style="rounded=0;orthogonalLoop=1;jettySize=auto;html=1;endArrow=halfCircle;endFill=0;entryX=0.5;entryY=0.5;endSize=6;strokeWidth=1;sketch=0;fontSize=10;fontColor=#000000;exitX=0.5;exitY=1;exitDx=0;exitDy=0;" edge="1" target="22CTzD5A5342r915eBUS-26" parent="1" source="22CTzD5A5342r915eBUS-20">
          <mxGeometry relative="1" as="geometry">
            <mxPoint x="480" y="340" as="sourcePoint" />
          </mxGeometry>
        </mxCell>
        <mxCell id="22CTzD5A5342r915eBUS-26" value="" style="ellipse;whiteSpace=wrap;html=1;align=center;aspect=fixed;resizable=0;points=[];outlineConnect=0;sketch=0;labelBackgroundColor=none;fontSize=10;fontColor=#000000;strokeColor=default;fillColor=#000000;gradientColor=none;" vertex="1" parent="1">
          <mxGeometry x="390" y="410" width="10" height="10" as="geometry" />
        </mxCell>
        <mxCell id="22CTzD5A5342r915eBUS-181" style="edgeStyle=orthogonalEdgeStyle;rounded=0;orthogonalLoop=1;jettySize=auto;html=1;entryX=0.5;entryY=0;entryDx=0;entryDy=0;entryPerimeter=0;labelBackgroundColor=#FFFFFF;fontFamily=Helvetica;fontSize=4;fontColor=#000000;startArrow=halfCircle;startFill=0;endArrow=async;endFill=0;strokeWidth=1;" edge="1" parent="1" source="22CTzD5A5342r915eBUS-41" target="22CTzD5A5342r915eBUS-180">
          <mxGeometry relative="1" as="geometry" />
        </mxCell>
        <mxCell id="22CTzD5A5342r915eBUS-41" value="&lt;font color=&quot;#ffffff&quot;&gt;Centralized network of knowledge assets&lt;/font&gt;" style="ellipse;shape=umlEntity;whiteSpace=wrap;html=1;labelBackgroundColor=none;fontSize=10;fontColor=#000000;strokeColor=default;fillColor=#000000;gradientColor=none;" vertex="1" parent="1">
          <mxGeometry x="660" y="-90" width="80" height="80" as="geometry" />
        </mxCell>
        <mxCell id="22CTzD5A5342r915eBUS-42" value="&lt;font style=&quot;font-size: 8px&quot;&gt;dispatch&lt;/font&gt;" style="html=1;verticalAlign=bottom;startArrow=oval;startFill=1;endArrow=block;startSize=8;rounded=0;fontSize=10;fontColor=#000000;exitX=0.5;exitY=1;exitDx=0;exitDy=0;" edge="1" parent="1" source="22CTzD5A5342r915eBUS-41" target="22CTzD5A5342r915eBUS-11">
          <mxGeometry x="0.25" width="60" relative="1" as="geometry">
            <mxPoint x="630" y="50" as="sourcePoint" />
            <mxPoint x="550" y="110" as="targetPoint" />
            <Array as="points" />
            <mxPoint as="offset" />
          </mxGeometry>
        </mxCell>
        <mxCell id="22CTzD5A5342r915eBUS-46" value="Social data extraction generator" style="shape=umlBoundary;whiteSpace=wrap;html=1;labelBackgroundColor=none;fontSize=10;fontColor=#FFFFFF;strokeColor=default;fillColor=#000000;gradientColor=none;" vertex="1" parent="1">
          <mxGeometry x="800" y="107" width="100" height="80" as="geometry" />
        </mxCell>
        <mxCell id="22CTzD5A5342r915eBUS-49" value="&lt;font style=&quot;font-size: 8px&quot;&gt;dispatch&lt;/font&gt;" style="html=1;verticalAlign=bottom;startArrow=oval;startFill=1;endArrow=block;startSize=8;rounded=0;fontSize=10;fontColor=#000000;exitX=0.5;exitY=1;exitDx=0;exitDy=0;entryX=1.043;entryY=0.459;entryDx=0;entryDy=0;entryPerimeter=0;" edge="1" parent="1" source="22CTzD5A5342r915eBUS-41" target="22CTzD5A5342r915eBUS-11">
          <mxGeometry x="-0.2968" y="-2" width="60" relative="1" as="geometry">
            <mxPoint x="550" y="30" as="sourcePoint" />
            <mxPoint x="580" y="60" as="targetPoint" />
            <Array as="points">
              <mxPoint x="800" y="147" />
            </Array>
            <mxPoint as="offset" />
          </mxGeometry>
        </mxCell>
        <mxCell id="22CTzD5A5342r915eBUS-59" value="&lt;span style=&quot;color: rgb(0 , 0 , 0)&quot;&gt;dispatch&lt;/span&gt;" style="edgeLabel;html=1;align=center;verticalAlign=middle;resizable=0;points=[];fontSize=8;fontColor=#FFFFFF;" vertex="1" connectable="0" parent="22CTzD5A5342r915eBUS-49">
          <mxGeometry x="0.5876" y="-2" relative="1" as="geometry">
            <mxPoint as="offset" />
          </mxGeometry>
        </mxCell>
        <mxCell id="22CTzD5A5342r915eBUS-52" value="Linguistic&lt;br&gt;modeling&lt;br&gt;intelligence" style="html=1;points=[];perimeter=orthogonalPerimeter;labelBackgroundColor=none;fontSize=8;fontColor=#FFFFFF;strokeColor=default;fillColor=#000000;gradientColor=none;" vertex="1" parent="1">
          <mxGeometry x="350" y="30" width="50" height="80" as="geometry" />
        </mxCell>
        <mxCell id="22CTzD5A5342r915eBUS-53" value="dispatch" style="html=1;verticalAlign=bottom;endArrow=block;entryX=0;entryY=0;rounded=0;fontSize=8;fontColor=#FFFFFF;exitX=1;exitY=0;exitDx=0;exitDy=0;" edge="1" target="22CTzD5A5342r915eBUS-52" parent="1" source="22CTzD5A5342r915eBUS-55">
          <mxGeometry relative="1" as="geometry">
            <mxPoint x="440" y="30" as="sourcePoint" />
          </mxGeometry>
        </mxCell>
        <mxCell id="22CTzD5A5342r915eBUS-78" style="edgeStyle=orthogonalEdgeStyle;rounded=0;orthogonalLoop=1;jettySize=auto;html=1;exitX=0;exitY=0.25;exitDx=0;exitDy=0;entryX=1;entryY=0.5;entryDx=0;entryDy=-14;fontFamily=Helvetica;fontSize=7;fontColor=#FFFFFF;startArrow=classicThin;startFill=0;endArrow=ERmany;endFill=0;entryPerimeter=0;" edge="1" parent="1" source="22CTzD5A5342r915eBUS-55" target="22CTzD5A5342r915eBUS-76">
          <mxGeometry relative="1" as="geometry">
            <Array as="points">
              <mxPoint x="100" y="50" />
              <mxPoint x="100" y="199" />
            </Array>
          </mxGeometry>
        </mxCell>
        <mxCell id="22CTzD5A5342r915eBUS-55" value="&lt;p style=&quot;margin: 0px ; margin-top: 6px ; text-align: center&quot;&gt;&lt;/p&gt;&lt;h1 id=&quot;firstHeading&quot; class=&quot;firstHeading mw-first-heading&quot; style=&quot;text-align: center ; margin: 0px 0px 0.25em ; padding: 0px ; overflow: visible ; border-bottom: 1px solid rgb(162 , 169 , 177) ; font-weight: normal ; line-height: 1.3 ; font-size: 9px&quot;&gt;&lt;font style=&quot;font-size: 9px&quot;&gt;Doc&lt;/font&gt;&lt;/h1&gt;&lt;h1 id=&quot;firstHeading&quot; class=&quot;firstHeading mw-first-heading&quot; style=&quot;text-align: center ; margin: 0px 0px 0.25em ; padding: 0px ; overflow: visible ; border-bottom: 1px solid rgb(162 , 169 , 177) ; font-weight: normal ; line-height: 1.3 ; font-size: 9px&quot;&gt;&lt;font style=&quot;font-size: 9px&quot;&gt;Grounded theory&lt;/font&gt;&lt;/h1&gt;&lt;p style=&quot;margin: 0px 0px 0px 8px ; font-size: 9px&quot;&gt;&lt;font style=&quot;font-size: 9px&quot;&gt;+ Codes: Type&lt;br&gt;+&lt;/font&gt;&lt;span&gt;&amp;nbsp;Consepts: Type&lt;/span&gt;&lt;/p&gt;&lt;p style=&quot;margin: 0px 0px 0px 8px ; font-size: 9px&quot;&gt;+ Categories: Type&lt;/p&gt;&lt;p style=&quot;margin: 0px 0px 0px 8px ; font-size: 9px&quot;&gt;+ Theory: Type&lt;/p&gt;&lt;p style=&quot;margin: 0px 0px 0px 8px ; font-size: 9px&quot;&gt;&lt;font style=&quot;font-size: 9px&quot;&gt;&lt;br&gt;&lt;/font&gt;&lt;/p&gt;" style="align=left;overflow=fill;html=1;dropTarget=0;labelBackgroundColor=none;fontSize=8;fontColor=#FFFFFF;strokeColor=default;fillColor=#000000;gradientColor=none;" vertex="1" parent="1">
          <mxGeometry x="118.5" y="30" width="130" height="80" as="geometry" />
        </mxCell>
        <mxCell id="22CTzD5A5342r915eBUS-57" value="dispatch" style="html=1;verticalAlign=bottom;startArrow=oval;startFill=1;endArrow=block;startSize=8;rounded=0;fontSize=8;fontColor=#FFFFFF;exitX=0.75;exitY=1;exitDx=0;exitDy=0;" edge="1" parent="1" source="22CTzD5A5342r915eBUS-55" target="22CTzD5A5342r915eBUS-14">
          <mxGeometry width="60" relative="1" as="geometry">
            <mxPoint x="240" y="150" as="sourcePoint" />
            <mxPoint x="370" y="149.71" as="targetPoint" />
            <Array as="points">
              <mxPoint x="245" y="150" />
            </Array>
          </mxGeometry>
        </mxCell>
        <mxCell id="22CTzD5A5342r915eBUS-58" value="dispatch" style="html=1;verticalAlign=bottom;endArrow=block;rounded=0;fontSize=8;fontColor=#FFFFFF;entryX=1;entryY=1;entryDx=0;entryDy=0;" edge="1" parent="1" source="22CTzD5A5342r915eBUS-52" target="22CTzD5A5342r915eBUS-55">
          <mxGeometry width="80" relative="1" as="geometry">
            <mxPoint x="380" y="100" as="sourcePoint" />
            <mxPoint x="460" y="100" as="targetPoint" />
          </mxGeometry>
        </mxCell>
        <mxCell id="22CTzD5A5342r915eBUS-127" style="edgeStyle=orthogonalEdgeStyle;rounded=0;orthogonalLoop=1;jettySize=auto;html=1;exitX=0;exitY=0;exitDx=20;exitDy=0;exitPerimeter=0;entryX=0.5;entryY=0;entryDx=0;entryDy=0;labelBackgroundColor=#FFFFFF;fontFamily=Helvetica;fontSize=7;fontColor=#000000;startArrow=baseDash;startFill=0;endArrow=diamondThin;endFill=1;strokeWidth=1;" edge="1" parent="1" source="22CTzD5A5342r915eBUS-60" target="22CTzD5A5342r915eBUS-125">
          <mxGeometry relative="1" as="geometry">
            <Array as="points">
              <mxPoint x="138" y="-120" />
              <mxPoint x="860" y="-120" />
            </Array>
          </mxGeometry>
        </mxCell>
        <mxCell id="22CTzD5A5342r915eBUS-128" value="&lt;span style=&quot;font-size: 8px&quot;&gt;dispatch&lt;/span&gt;" style="edgeLabel;html=1;align=center;verticalAlign=middle;resizable=0;points=[];fontSize=4;fontFamily=Helvetica;fontColor=#000000;" vertex="1" connectable="0" parent="22CTzD5A5342r915eBUS-127">
          <mxGeometry x="-0.1139" y="-1" relative="1" as="geometry">
            <mxPoint as="offset" />
          </mxGeometry>
        </mxCell>
        <mxCell id="22CTzD5A5342r915eBUS-130" style="edgeStyle=orthogonalEdgeStyle;rounded=0;orthogonalLoop=1;jettySize=auto;html=1;entryX=1;entryY=0.475;entryDx=0;entryDy=0;entryPerimeter=0;labelBackgroundColor=#FFFFFF;fontFamily=Helvetica;fontSize=4;fontColor=#000000;startArrow=blockThin;startFill=1;endArrow=ERmandOne;endFill=0;strokeWidth=1;" edge="1" parent="1" target="22CTzD5A5342r915eBUS-118">
          <mxGeometry relative="1" as="geometry">
            <mxPoint x="190" y="602" as="sourcePoint" />
            <Array as="points">
              <mxPoint x="520" y="602" />
              <mxPoint x="520" y="490" />
            </Array>
          </mxGeometry>
        </mxCell>
        <mxCell id="22CTzD5A5342r915eBUS-131" value="&lt;span style=&quot;font-size: 8px&quot;&gt;dispatch&lt;/span&gt;" style="edgeLabel;html=1;align=center;verticalAlign=middle;resizable=0;points=[];fontSize=4;fontFamily=Helvetica;fontColor=#000000;" vertex="1" connectable="0" parent="22CTzD5A5342r915eBUS-130">
          <mxGeometry x="-0.2218" y="-1" relative="1" as="geometry">
            <mxPoint as="offset" />
          </mxGeometry>
        </mxCell>
        <mxCell id="22CTzD5A5342r915eBUS-60" value="&lt;font style=&quot;font-size: 8px&quot;&gt;Semantic&lt;br&gt;analysis&lt;br&gt;packet&lt;/font&gt;" style="shape=folder;fontStyle=1;spacingTop=10;tabWidth=40;tabHeight=14;tabPosition=left;html=1;labelBackgroundColor=none;fontFamily=Helvetica;fontSize=9;fontColor=#FFFFFF;strokeColor=default;fillColor=#CC0000;gradientColor=none;" vertex="1" parent="1">
          <mxGeometry x="118.5" y="-50" width="70" height="50" as="geometry" />
        </mxCell>
        <mxCell id="22CTzD5A5342r915eBUS-61" value="ML&lt;br&gt;AI" style="html=1;points=[];perimeter=orthogonalPerimeter;labelBackgroundColor=none;fontFamily=Helvetica;fontSize=9;fontColor=#FFFFFF;strokeColor=default;fillColor=#CC0000;gradientColor=none;" vertex="1" parent="1">
          <mxGeometry x="400" y="50" width="20" height="40" as="geometry" />
        </mxCell>
        <mxCell id="22CTzD5A5342r915eBUS-62" value="&lt;span style=&quot;color: rgb(0 , 0 , 0) ; font-size: 8px ; text-align: center&quot;&gt;dispatch&lt;/span&gt;" style="edgeStyle=orthogonalEdgeStyle;html=1;align=left;spacingLeft=2;endArrow=ERone;rounded=0;fontFamily=Helvetica;fontSize=9;fontColor=#FFFFFF;entryX=1.169;entryY=0.55;entryDx=0;entryDy=0;entryPerimeter=0;endFill=0;startArrow=blockThin;startFill=1;" edge="1" target="22CTzD5A5342r915eBUS-61" parent="1">
          <mxGeometry relative="1" as="geometry">
            <mxPoint x="290" y="-36" as="sourcePoint" />
            <Array as="points">
              <mxPoint x="440" y="-36" />
              <mxPoint x="440" y="72" />
            </Array>
            <mxPoint x="430" y="70" as="targetPoint" />
          </mxGeometry>
        </mxCell>
        <mxCell id="22CTzD5A5342r915eBUS-64" value="" style="rounded=0;orthogonalLoop=1;jettySize=auto;html=1;endArrow=none;endFill=0;sketch=0;sourcePerimeterSpacing=0;targetPerimeterSpacing=0;fontFamily=Helvetica;fontSize=8;fontColor=#FFFFFF;exitX=0.5;exitY=0;exitDx=0;exitDy=0;" edge="1" target="22CTzD5A5342r915eBUS-66" parent="1" source="22CTzD5A5342r915eBUS-20">
          <mxGeometry relative="1" as="geometry">
            <mxPoint x="355" y="285" as="sourcePoint" />
          </mxGeometry>
        </mxCell>
        <mxCell id="22CTzD5A5342r915eBUS-65" value="" style="rounded=0;orthogonalLoop=1;jettySize=auto;html=1;endArrow=halfCircle;endFill=0;entryX=0.5;entryY=0.5;endSize=6;strokeWidth=1;sketch=0;fontFamily=Helvetica;fontSize=8;fontColor=#FFFFFF;exitX=0.5;exitY=1;exitDx=0;exitDy=0;" edge="1" target="22CTzD5A5342r915eBUS-66" parent="1" source="1672d66443f91eb5-7">
          <mxGeometry relative="1" as="geometry">
            <mxPoint x="395" y="285" as="sourcePoint" />
          </mxGeometry>
        </mxCell>
        <mxCell id="22CTzD5A5342r915eBUS-66" value="" style="ellipse;whiteSpace=wrap;html=1;align=center;aspect=fixed;resizable=0;points=[];outlineConnect=0;sketch=0;labelBackgroundColor=none;fontFamily=Helvetica;fontSize=8;fontColor=#FFFFFF;strokeColor=default;fillColor=#CC0000;gradientColor=none;" vertex="1" parent="1">
          <mxGeometry x="390" y="270" width="10" height="10" as="geometry" />
        </mxCell>
        <mxCell id="22CTzD5A5342r915eBUS-67" value="" style="endArrow=ERmandOne;startArrow=ERmany;endFill=0;startFill=0;endSize=8;html=1;rounded=0;fontFamily=Helvetica;fontSize=8;fontColor=#FFFFFF;exitX=0;exitY=0;exitDx=0;exitDy=23;exitPerimeter=0;entryX=0.5;entryY=0;entryDx=0;entryDy=0;entryPerimeter=0;" edge="1" parent="1" source="22CTzD5A5342r915eBUS-60" target="22CTzD5A5342r915eBUS-76">
          <mxGeometry width="160" relative="1" as="geometry">
            <mxPoint x="110" y="-50" as="sourcePoint" />
            <mxPoint x="320" y="260" as="targetPoint" />
            <Array as="points">
              <mxPoint x="90" y="-27" />
              <mxPoint y="-27" />
            </Array>
          </mxGeometry>
        </mxCell>
        <mxCell id="22CTzD5A5342r915eBUS-79" style="edgeStyle=orthogonalEdgeStyle;rounded=0;orthogonalLoop=1;jettySize=auto;html=1;exitX=1;exitY=0.5;exitDx=0;exitDy=14;exitPerimeter=0;entryX=0;entryY=0.5;entryDx=0;entryDy=0;fontFamily=Helvetica;fontSize=7;fontColor=#FFFFFF;startArrow=ERmany;startFill=0;endArrow=block;endFill=1;" edge="1" parent="1" source="22CTzD5A5342r915eBUS-76" target="1672d66443f91eb5-7">
          <mxGeometry relative="1" as="geometry" />
        </mxCell>
        <mxCell id="22CTzD5A5342r915eBUS-76" value="Dashboard Discover network text data and discover semantic networks" style="html=1;shape=mxgraph.sysml.paramSet;whiteSpace=wrap;align=center;labelBackgroundColor=none;fontFamily=Helvetica;fontSize=7;fontColor=#FFFFFF;strokeColor=default;fillColor=#CC0000;gradientColor=none;" vertex="1" parent="1">
          <mxGeometry x="-80" y="162.5" width="160" height="100" as="geometry" />
        </mxCell>
        <mxCell id="22CTzD5A5342r915eBUS-120" style="edgeStyle=orthogonalEdgeStyle;rounded=0;orthogonalLoop=1;jettySize=auto;html=1;exitX=1;exitY=0.5;exitDx=0;exitDy=-14;exitPerimeter=0;entryX=0;entryY=0.5;entryDx=0;entryDy=0;labelBackgroundColor=#FFFFFF;fontFamily=Helvetica;fontSize=7;fontColor=#000000;startArrow=ERoneToMany;startFill=0;endArrow=diamondThin;endFill=1;strokeWidth=1;" edge="1" parent="1" source="22CTzD5A5342r915eBUS-77" target="22CTzD5A5342r915eBUS-20">
          <mxGeometry relative="1" as="geometry" />
        </mxCell>
        <mxCell id="22CTzD5A5342r915eBUS-77" value="VRPM&lt;br&gt;Verbal Reasoning Process Management Dashboard" style="html=1;shape=mxgraph.sysml.paramSet;whiteSpace=wrap;align=center;labelBackgroundColor=none;fontFamily=Helvetica;fontSize=7;fontColor=#FFFFFF;strokeColor=default;fillColor=#CC0000;gradientColor=none;" vertex="1" parent="1">
          <mxGeometry x="-80" y="290" width="160" height="100" as="geometry" />
        </mxCell>
        <mxCell id="22CTzD5A5342r915eBUS-132" style="edgeStyle=orthogonalEdgeStyle;rounded=0;orthogonalLoop=1;jettySize=auto;html=1;exitX=1;exitY=0.25;exitDx=0;exitDy=0;entryX=0;entryY=0;entryDx=0;entryDy=0;labelBackgroundColor=#FFFFFF;fontFamily=Helvetica;fontSize=4;fontColor=#000000;startArrow=halfCircle;startFill=0;endArrow=async;endFill=0;strokeWidth=1;" edge="1" parent="1" source="1672d66443f91eb5-9" target="1672d66443f91eb5-7">
          <mxGeometry relative="1" as="geometry">
            <Array as="points">
              <mxPoint x="-380" y="257" />
              <mxPoint x="-380" y="130" />
              <mxPoint x="315" y="130" />
            </Array>
          </mxGeometry>
        </mxCell>
        <mxCell id="22CTzD5A5342r915eBUS-134" value="node discovered" style="edgeLabel;html=1;align=center;verticalAlign=middle;resizable=0;points=[];fontSize=4;fontFamily=Helvetica;fontColor=#000000;" vertex="1" connectable="0" parent="22CTzD5A5342r915eBUS-132">
          <mxGeometry x="-0.2256" relative="1" as="geometry">
            <mxPoint as="offset" />
          </mxGeometry>
        </mxCell>
        <mxCell id="22CTzD5A5342r915eBUS-133" style="edgeStyle=orthogonalEdgeStyle;rounded=0;orthogonalLoop=1;jettySize=auto;html=1;exitX=1;exitY=0.75;exitDx=0;exitDy=0;entryX=0;entryY=1;entryDx=0;entryDy=0;labelBackgroundColor=#FFFFFF;fontFamily=Helvetica;fontSize=4;fontColor=#000000;startArrow=halfCircle;startFill=0;endArrow=async;endFill=0;strokeWidth=1;" edge="1" parent="1" source="1672d66443f91eb5-9" target="22CTzD5A5342r915eBUS-20">
          <mxGeometry relative="1" as="geometry">
            <Array as="points">
              <mxPoint x="-380" y="293" />
              <mxPoint x="-380" y="430" />
              <mxPoint x="315" y="430" />
            </Array>
          </mxGeometry>
        </mxCell>
        <mxCell id="22CTzD5A5342r915eBUS-135" value="node discovered" style="edgeLabel;html=1;align=center;verticalAlign=middle;resizable=0;points=[];fontSize=4;fontFamily=Helvetica;fontColor=#000000;" vertex="1" connectable="0" parent="22CTzD5A5342r915eBUS-133">
          <mxGeometry x="-0.2533" y="1" relative="1" as="geometry">
            <mxPoint as="offset" />
          </mxGeometry>
        </mxCell>
        <mxCell id="1672d66443f91eb5-9" value="&lt;p&gt;&amp;lt;&amp;lt;Doc&amp;gt;&amp;gt;&lt;/p&gt;&lt;p&gt;Structured text format&lt;/p&gt;" style="shape=rect;html=1;overflow=fill;whiteSpace=wrap;align=center;fontStyle=1" parent="1" vertex="1">
          <mxGeometry x="-600" y="240" width="160" height="70" as="geometry" />
        </mxCell>
        <mxCell id="22CTzD5A5342r915eBUS-106" style="edgeStyle=orthogonalEdgeStyle;rounded=0;orthogonalLoop=1;jettySize=auto;html=1;exitX=1;exitY=0.5;exitDx=0;exitDy=0;exitPerimeter=0;entryX=0;entryY=0.5;entryDx=0;entryDy=14;entryPerimeter=0;labelBackgroundColor=#FFFFFF;fontFamily=Helvetica;fontSize=7;fontColor=#000000;startArrow=baseDash;startFill=0;endArrow=diamondThin;endFill=1;strokeWidth=1;" edge="1" parent="1" source="22CTzD5A5342r915eBUS-82" target="22CTzD5A5342r915eBUS-76">
          <mxGeometry relative="1" as="geometry" />
        </mxCell>
        <mxCell id="22CTzD5A5342r915eBUS-107" style="edgeStyle=orthogonalEdgeStyle;rounded=0;orthogonalLoop=1;jettySize=auto;html=1;exitX=1;exitY=0.5;exitDx=0;exitDy=0;exitPerimeter=0;entryX=0;entryY=0.5;entryDx=0;entryDy=-14;entryPerimeter=0;labelBackgroundColor=#FFFFFF;fontFamily=Helvetica;fontSize=7;fontColor=#000000;startArrow=baseDash;startFill=0;endArrow=diamondThin;endFill=1;strokeWidth=1;" edge="1" parent="1" source="22CTzD5A5342r915eBUS-82" target="22CTzD5A5342r915eBUS-77">
          <mxGeometry relative="1" as="geometry" />
        </mxCell>
        <mxCell id="22CTzD5A5342r915eBUS-112" style="edgeStyle=orthogonalEdgeStyle;rounded=0;orthogonalLoop=1;jettySize=auto;html=1;exitX=0;exitY=0.5;exitDx=0;exitDy=0;entryX=1;entryY=0.5;entryDx=0;entryDy=0;entryPerimeter=0;labelBackgroundColor=#FFFFFF;fontFamily=Helvetica;fontSize=7;fontColor=#000000;startArrow=baseDash;startFill=0;endArrow=diamondThin;endFill=1;strokeWidth=1;" edge="1" parent="1" source="1672d66443f91eb5-9" target="22CTzD5A5342r915eBUS-84">
          <mxGeometry relative="1" as="geometry" />
        </mxCell>
        <mxCell id="22CTzD5A5342r915eBUS-113" style="edgeStyle=orthogonalEdgeStyle;rounded=0;orthogonalLoop=1;jettySize=auto;html=1;exitX=0;exitY=0.5;exitDx=0;exitDy=0;exitPerimeter=0;entryX=1;entryY=0.5;entryDx=0;entryDy=0;labelBackgroundColor=#FFFFFF;fontFamily=Helvetica;fontSize=7;fontColor=#000000;startArrow=baseDash;startFill=0;endArrow=diamondThin;endFill=1;strokeWidth=1;" edge="1" parent="1" source="22CTzD5A5342r915eBUS-82" target="1672d66443f91eb5-9">
          <mxGeometry relative="1" as="geometry" />
        </mxCell>
        <mxCell id="22CTzD5A5342r915eBUS-82" value="User" style="html=1;shape=mxgraph.sysml.objFlowR;whiteSpace=wrap;labelBackgroundColor=none;fontFamily=Helvetica;fontSize=7;fontColor=#FFFFFF;strokeColor=default;fillColor=#CC0000;gradientColor=none;" vertex="1" parent="1">
          <mxGeometry x="-350" y="245" width="120" height="60" as="geometry" />
        </mxCell>
        <mxCell id="22CTzD5A5342r915eBUS-84" value="Verbal reasoning process machine" style="html=1;shape=mxgraph.sysml.package;labelX=131.47;align=left;spacingLeft=5;verticalAlign=top;spacingTop=-3;fontStyle=1;strokeWidth=1;recursiveResize=0;labelBackgroundColor=none;fontFamily=Helvetica;fontSize=7;fontColor=#FFFFFF;fillColor=#CC0000;gradientColor=none;" vertex="1" parent="1">
          <mxGeometry x="-1041.5" y="150" width="330" height="250" as="geometry" />
        </mxCell>
        <mxCell id="22CTzD5A5342r915eBUS-96" style="edgeStyle=orthogonalEdgeStyle;rounded=0;orthogonalLoop=1;jettySize=auto;html=1;exitX=1;exitY=1;exitDx=0;exitDy=0;entryX=0.25;entryY=0;entryDx=0;entryDy=0;fontFamily=Helvetica;fontSize=7;fontColor=#000000;startArrow=ERmany;startFill=0;endArrow=block;endFill=1;" edge="1" parent="22CTzD5A5342r915eBUS-84" source="22CTzD5A5342r915eBUS-85" target="22CTzD5A5342r915eBUS-89">
          <mxGeometry relative="1" as="geometry">
            <Array as="points">
              <mxPoint x="150" y="120" />
              <mxPoint x="210" y="120" />
            </Array>
          </mxGeometry>
        </mxCell>
        <mxCell id="22CTzD5A5342r915eBUS-97" value="non3" style="edgeLabel;html=1;align=center;verticalAlign=middle;resizable=0;points=[];fontSize=7;fontFamily=Helvetica;fontColor=#000000;" vertex="1" connectable="0" parent="22CTzD5A5342r915eBUS-96">
          <mxGeometry x="0.5492" y="-1" relative="1" as="geometry">
            <mxPoint as="offset" />
          </mxGeometry>
        </mxCell>
        <mxCell id="22CTzD5A5342r915eBUS-85" value="&amp;lt;&amp;lt;two step&amp;gt;&amp;gt;&lt;br&gt;Syntactic data integration and discover meaningful relevance" style="strokeColor=inherit;fillColor=inherit;gradientColor=inherit;shape=rect;html=1;whiteSpace=wrap;align=center;labelBackgroundColor=none;fontFamily=Helvetica;fontSize=7;fontColor=#FFFFFF;" vertex="1" parent="22CTzD5A5342r915eBUS-84">
          <mxGeometry x="30" y="40" width="120" height="60" as="geometry" />
        </mxCell>
        <mxCell id="22CTzD5A5342r915eBUS-93" style="edgeStyle=orthogonalEdgeStyle;rounded=0;orthogonalLoop=1;jettySize=auto;html=1;exitX=1;exitY=0;exitDx=0;exitDy=0;entryX=0;entryY=1;entryDx=0;entryDy=0;fontFamily=Helvetica;fontSize=7;fontColor=#FFFFFF;startArrow=ERmany;startFill=0;endArrow=block;endFill=1;" edge="1" parent="22CTzD5A5342r915eBUS-84" source="22CTzD5A5342r915eBUS-86" target="22CTzD5A5342r915eBUS-88">
          <mxGeometry relative="1" as="geometry">
            <Array as="points">
              <mxPoint x="150" y="140" />
              <mxPoint x="180" y="140" />
            </Array>
          </mxGeometry>
        </mxCell>
        <mxCell id="22CTzD5A5342r915eBUS-94" value="&lt;font color=&quot;#000000&quot;&gt;non2&lt;/font&gt;" style="edgeLabel;html=1;align=center;verticalAlign=middle;resizable=0;points=[];fontSize=7;fontFamily=Helvetica;fontColor=#FFFFFF;" vertex="1" connectable="0" parent="22CTzD5A5342r915eBUS-93">
          <mxGeometry x="0.2215" y="2" relative="1" as="geometry">
            <mxPoint as="offset" />
          </mxGeometry>
        </mxCell>
        <mxCell id="22CTzD5A5342r915eBUS-86" value="&amp;lt;&amp;lt;one step&amp;gt;&amp;gt;&lt;br&gt;Semantic processing textual data" style="strokeColor=inherit;fillColor=inherit;gradientColor=inherit;shape=rect;html=1;whiteSpace=wrap;align=center;labelBackgroundColor=none;fontFamily=Helvetica;fontSize=7;fontColor=#FFFFFF;" vertex="1" parent="22CTzD5A5342r915eBUS-84">
          <mxGeometry x="30" y="160" width="120" height="60" as="geometry" />
        </mxCell>
        <mxCell id="22CTzD5A5342r915eBUS-87" value="&lt;font color=&quot;#000000&quot; style=&quot;background-color: rgb(255 , 255 , 255)&quot;&gt;non1&lt;/font&gt;" style="strokeColor=inherit;fillColor=inherit;gradientColor=inherit;endArrow=none;html=1;edgeStyle=none;endFill=0;startArrow=diamondThin;startFill=1;align=left;verticalAlign=bottom;labelBackgroundColor=none;rounded=0;fontFamily=Helvetica;fontSize=7;fontColor=#FFFFFF;" edge="1" parent="22CTzD5A5342r915eBUS-84" source="22CTzD5A5342r915eBUS-85" target="22CTzD5A5342r915eBUS-86">
          <mxGeometry x="1" relative="1" as="geometry" />
        </mxCell>
        <mxCell id="22CTzD5A5342r915eBUS-102" style="edgeStyle=orthogonalEdgeStyle;rounded=0;orthogonalLoop=1;jettySize=auto;html=1;exitX=0.5;exitY=1;exitDx=0;exitDy=0;entryX=0.5;entryY=0;entryDx=0;entryDy=0;labelBackgroundColor=#FFFFFF;fontFamily=Helvetica;fontSize=7;fontColor=#000000;startArrow=baseDash;startFill=0;endArrow=diamondThin;endFill=1;strokeWidth=1;" edge="1" parent="22CTzD5A5342r915eBUS-84" source="22CTzD5A5342r915eBUS-88" target="22CTzD5A5342r915eBUS-89">
          <mxGeometry relative="1" as="geometry" />
        </mxCell>
        <mxCell id="22CTzD5A5342r915eBUS-103" value="non4" style="edgeLabel;html=1;align=center;verticalAlign=middle;resizable=0;points=[];fontSize=7;fontFamily=Helvetica;fontColor=#000000;" vertex="1" connectable="0" parent="22CTzD5A5342r915eBUS-102">
          <mxGeometry x="-0.3302" relative="1" as="geometry">
            <mxPoint as="offset" />
          </mxGeometry>
        </mxCell>
        <mxCell id="22CTzD5A5342r915eBUS-88" value="&amp;lt;&amp;lt;three step&amp;gt;&amp;gt;&lt;br&gt;Collective intelligence analysis" style="strokeColor=inherit;fillColor=inherit;gradientColor=inherit;shape=rect;html=1;whiteSpace=wrap;align=center;labelBackgroundColor=none;fontFamily=Helvetica;fontSize=7;fontColor=#FFFFFF;" vertex="1" parent="22CTzD5A5342r915eBUS-84">
          <mxGeometry x="180" y="40" width="120" height="60" as="geometry" />
        </mxCell>
        <mxCell id="22CTzD5A5342r915eBUS-89" value="&amp;lt;&amp;lt;Four&amp;gt;&amp;gt;&lt;br&gt;Data visualization with graph theory" style="strokeColor=inherit;fillColor=inherit;gradientColor=inherit;shape=rect;html=1;whiteSpace=wrap;align=center;labelBackgroundColor=none;fontFamily=Helvetica;fontSize=7;fontColor=#FFFFFF;" vertex="1" parent="22CTzD5A5342r915eBUS-84">
          <mxGeometry x="180" y="160" width="120" height="60" as="geometry" />
        </mxCell>
        <mxCell id="22CTzD5A5342r915eBUS-114" value="Linguistic&lt;br&gt;modeling&lt;br&gt;intelligence" style="html=1;points=[];perimeter=orthogonalPerimeter;labelBackgroundColor=none;fontSize=8;fontColor=#FFFFFF;strokeColor=default;fillColor=#000000;gradientColor=none;" vertex="1" parent="1">
          <mxGeometry x="350" y="451" width="50" height="80" as="geometry" />
        </mxCell>
        <mxCell id="22CTzD5A5342r915eBUS-115" value="&lt;p style=&quot;margin: 0px ; margin-top: 6px ; text-align: center&quot;&gt;&lt;/p&gt;&lt;h1 id=&quot;firstHeading&quot; class=&quot;firstHeading mw-first-heading&quot; style=&quot;text-align: center ; margin: 0px 0px 0.25em ; padding: 0px ; overflow: visible ; border-bottom: 1px solid rgb(162 , 169 , 177) ; font-weight: normal ; line-height: 1.3 ; font-size: 9px&quot;&gt;&lt;font style=&quot;font-size: 9px&quot;&gt;Doc&lt;/font&gt;&lt;/h1&gt;&lt;h1 id=&quot;firstHeading&quot; class=&quot;firstHeading mw-first-heading&quot; style=&quot;text-align: center ; margin: 0px 0px 0.25em ; padding: 0px ; overflow: visible ; border-bottom: 1px solid rgb(162 , 169 , 177) ; font-weight: normal ; line-height: 1.3 ; font-size: 9px&quot;&gt;&lt;font style=&quot;font-size: 9px&quot;&gt;Grounded theory&lt;/font&gt;&lt;/h1&gt;&lt;p style=&quot;margin: 0px 0px 0px 8px ; font-size: 9px&quot;&gt;&lt;font style=&quot;font-size: 9px&quot;&gt;+ Codes: Type&lt;br&gt;+&lt;/font&gt;&lt;span&gt;&amp;nbsp;Consepts: Type&lt;/span&gt;&lt;/p&gt;&lt;p style=&quot;margin: 0px 0px 0px 8px ; font-size: 9px&quot;&gt;+ Categories: Type&lt;/p&gt;&lt;p style=&quot;margin: 0px 0px 0px 8px ; font-size: 9px&quot;&gt;+ Theory: Type&lt;/p&gt;&lt;p style=&quot;margin: 0px 0px 0px 8px ; font-size: 9px&quot;&gt;&lt;font style=&quot;font-size: 9px&quot;&gt;&lt;br&gt;&lt;/font&gt;&lt;/p&gt;" style="align=left;overflow=fill;html=1;dropTarget=0;labelBackgroundColor=none;fontSize=8;fontColor=#FFFFFF;strokeColor=default;fillColor=#000000;gradientColor=none;" vertex="1" parent="1">
          <mxGeometry x="118.5" y="451" width="130" height="80" as="geometry" />
        </mxCell>
        <mxCell id="22CTzD5A5342r915eBUS-116" value="dispatch" style="html=1;verticalAlign=bottom;endArrow=block;entryX=0;entryY=0;rounded=0;fontSize=8;fontColor=#FFFFFF;exitX=1;exitY=0;exitDx=0;exitDy=0;" edge="1" source="22CTzD5A5342r915eBUS-115" target="22CTzD5A5342r915eBUS-114" parent="1">
          <mxGeometry relative="1" as="geometry">
            <mxPoint x="440" y="451" as="sourcePoint" />
          </mxGeometry>
        </mxCell>
        <mxCell id="22CTzD5A5342r915eBUS-117" value="dispatch" style="html=1;verticalAlign=bottom;endArrow=block;rounded=0;fontSize=8;fontColor=#FFFFFF;entryX=1;entryY=1;entryDx=0;entryDy=0;" edge="1" source="22CTzD5A5342r915eBUS-114" target="22CTzD5A5342r915eBUS-115" parent="1">
          <mxGeometry width="80" relative="1" as="geometry">
            <mxPoint x="380" y="521" as="sourcePoint" />
            <mxPoint x="460" y="521" as="targetPoint" />
          </mxGeometry>
        </mxCell>
        <mxCell id="22CTzD5A5342r915eBUS-118" value="ML&lt;br&gt;AI" style="html=1;points=[];perimeter=orthogonalPerimeter;labelBackgroundColor=none;fontFamily=Helvetica;fontSize=9;fontColor=#FFFFFF;strokeColor=default;fillColor=#CC0000;gradientColor=none;" vertex="1" parent="1">
          <mxGeometry x="400" y="471" width="20" height="40" as="geometry" />
        </mxCell>
        <mxCell id="22CTzD5A5342r915eBUS-119" style="edgeStyle=orthogonalEdgeStyle;rounded=0;orthogonalLoop=1;jettySize=auto;html=1;exitX=0;exitY=0.25;exitDx=0;exitDy=0;fontFamily=Helvetica;fontSize=7;fontColor=#FFFFFF;startArrow=classicThin;startFill=0;endArrow=ERmany;endFill=0;entryX=1.015;entryY=0.646;entryDx=0;entryDy=0;entryPerimeter=0;" edge="1" source="22CTzD5A5342r915eBUS-115" parent="1" target="22CTzD5A5342r915eBUS-77">
          <mxGeometry relative="1" as="geometry">
            <mxPoint x="130" y="330" as="targetPoint" />
            <Array as="points">
              <mxPoint x="100" y="471" />
              <mxPoint x="100" y="355" />
            </Array>
          </mxGeometry>
        </mxCell>
        <mxCell id="22CTzD5A5342r915eBUS-124" value="dispatch" style="html=1;verticalAlign=bottom;startArrow=oval;startFill=1;endArrow=block;startSize=8;rounded=0;fontSize=8;fontColor=#FFFFFF;" edge="1" parent="1" target="22CTzD5A5342r915eBUS-26">
          <mxGeometry width="60" relative="1" as="geometry">
            <mxPoint x="220" y="450" as="sourcePoint" />
            <mxPoint x="365.75" y="400" as="targetPoint" />
            <Array as="points">
              <mxPoint x="240" y="415" />
            </Array>
          </mxGeometry>
        </mxCell>
        <mxCell id="22CTzD5A5342r915eBUS-126" value="&lt;span style=&quot;font-size: 8px&quot;&gt;dispatch&lt;/span&gt;" style="edgeStyle=orthogonalEdgeStyle;rounded=0;orthogonalLoop=1;jettySize=auto;html=1;exitX=0.5;exitY=1;exitDx=0;exitDy=0;entryX=0.602;entryY=0.037;entryDx=0;entryDy=0;entryPerimeter=0;labelBackgroundColor=#FFFFFF;fontFamily=Helvetica;fontSize=4;fontColor=#000000;startArrow=baseDash;startFill=0;endArrow=diamondThin;endFill=1;strokeWidth=1;" edge="1" parent="1" source="22CTzD5A5342r915eBUS-125" target="22CTzD5A5342r915eBUS-46">
          <mxGeometry relative="1" as="geometry" />
        </mxCell>
        <mxCell id="22CTzD5A5342r915eBUS-182" style="edgeStyle=orthogonalEdgeStyle;rounded=0;orthogonalLoop=1;jettySize=auto;html=1;exitX=1;exitY=0.5;exitDx=0;exitDy=0;entryX=0;entryY=0.5;entryDx=0;entryDy=0;entryPerimeter=0;labelBackgroundColor=#FFFFFF;fontFamily=Helvetica;fontSize=4;fontColor=#000000;startArrow=halfCircle;startFill=0;endArrow=async;endFill=0;strokeWidth=1;" edge="1" parent="1" source="22CTzD5A5342r915eBUS-125" target="22CTzD5A5342r915eBUS-180">
          <mxGeometry relative="1" as="geometry" />
        </mxCell>
        <mxCell id="22CTzD5A5342r915eBUS-125" value="&lt;font color=&quot;#ffffff&quot;&gt;Semantic Signature Envelope&lt;/font&gt;" style="ellipse;shape=umlEntity;whiteSpace=wrap;html=1;labelBackgroundColor=none;fontSize=10;fontColor=#000000;strokeColor=default;fillColor=#000000;gradientColor=none;" vertex="1" parent="1">
          <mxGeometry x="820" y="-20" width="80" height="80" as="geometry" />
        </mxCell>
        <mxCell id="22CTzD5A5342r915eBUS-150" style="edgeStyle=orthogonalEdgeStyle;rounded=0;orthogonalLoop=1;jettySize=auto;html=1;entryX=0.5;entryY=0;entryDx=0;entryDy=0;labelBackgroundColor=#FFFFFF;fontFamily=Helvetica;fontSize=4;fontColor=#000000;startArrow=halfCircle;startFill=0;endArrow=async;endFill=0;strokeWidth=1;" edge="1" parent="1" source="22CTzD5A5342r915eBUS-144" target="1672d66443f91eb5-9">
          <mxGeometry relative="1" as="geometry" />
        </mxCell>
        <mxCell id="22CTzD5A5342r915eBUS-169" style="edgeStyle=orthogonalEdgeStyle;rounded=0;orthogonalLoop=1;jettySize=auto;html=1;entryX=0;entryY=0.5;entryDx=0;entryDy=0;labelBackgroundColor=#FFFFFF;fontFamily=Helvetica;fontSize=4;fontColor=#000000;startArrow=halfCircle;startFill=0;endArrow=async;endFill=0;strokeWidth=1;" edge="1" parent="1" source="22CTzD5A5342r915eBUS-144" target="22CTzD5A5342r915eBUS-55">
          <mxGeometry relative="1" as="geometry">
            <Array as="points">
              <mxPoint x="-520" y="70" />
            </Array>
          </mxGeometry>
        </mxCell>
        <mxCell id="22CTzD5A5342r915eBUS-144" value="Action" style="html=1;shape=mxgraph.sysml.isControl;whiteSpace=wrap;align=center;labelBackgroundColor=none;fontFamily=Helvetica;fontSize=4;fontColor=#000000;strokeColor=default;fillColor=none;gradientColor=none;" vertex="1" parent="1">
          <mxGeometry x="-580" y="120" width="120" height="60" as="geometry" />
        </mxCell>
        <mxCell id="22CTzD5A5342r915eBUS-145" value="{control}" style="edgeStyle=elbowEdgeStyle;html=1;elbow=horizontal;startArrow=open;rounded=0;endArrow=none;verticalAlign=bottom;exitX=0;exitY=0.5;startSize=12;labelBackgroundColor=#FFFFFF;fontFamily=Helvetica;fontSize=4;fontColor=#000000;strokeWidth=1;entryX=1;entryY=0.25;entryDx=0;entryDy=0;entryPerimeter=0;" edge="1" source="22CTzD5A5342r915eBUS-144" parent="1" target="22CTzD5A5342r915eBUS-84">
          <mxGeometry relative="1" as="geometry">
            <mxPoint x="-670" y="170" as="targetPoint" />
          </mxGeometry>
        </mxCell>
        <mxCell id="22CTzD5A5342r915eBUS-146" value="{control}" style="edgeStyle=orthogonalEdgeStyle;html=1;elbow=vertical;endArrow=open;rounded=0;verticalAlign=bottom;endSize=12;labelBackgroundColor=#FFFFFF;fontFamily=Helvetica;fontSize=4;fontColor=#000000;strokeWidth=1;exitX=1;exitY=0.5;exitDx=0;exitDy=0;exitPerimeter=0;" edge="1" source="22CTzD5A5342r915eBUS-144" parent="1" target="22CTzD5A5342r915eBUS-76">
          <mxGeometry relative="1" as="geometry">
            <mxPoint x="-90" y="200" as="targetPoint" />
            <Array as="points">
              <mxPoint x="-330" y="150" />
              <mxPoint x="-330" y="200" />
            </Array>
          </mxGeometry>
        </mxCell>
        <mxCell id="22CTzD5A5342r915eBUS-147" value="{control}" style="edgeStyle=elbowEdgeStyle;html=1;elbow=horizontal;startArrow=open;rounded=0;endArrow=none;verticalAlign=bottom;exitX=0;exitY=0.5;startSize=12;labelBackgroundColor=#FFFFFF;fontFamily=Helvetica;fontSize=4;fontColor=#000000;strokeWidth=1;entryX=1;entryY=0.75;entryDx=0;entryDy=0;entryPerimeter=0;" edge="1" source="22CTzD5A5342r915eBUS-148" parent="1" target="22CTzD5A5342r915eBUS-84">
          <mxGeometry relative="1" as="geometry">
            <mxPoint x="-711.5" y="492.5" as="targetPoint" />
          </mxGeometry>
        </mxCell>
        <mxCell id="22CTzD5A5342r915eBUS-151" style="edgeStyle=orthogonalEdgeStyle;rounded=0;orthogonalLoop=1;jettySize=auto;html=1;entryX=0.5;entryY=1;entryDx=0;entryDy=0;labelBackgroundColor=#FFFFFF;fontFamily=Helvetica;fontSize=4;fontColor=#000000;startArrow=halfCircle;startFill=0;endArrow=async;endFill=0;strokeWidth=1;" edge="1" parent="1" source="22CTzD5A5342r915eBUS-148" target="1672d66443f91eb5-9">
          <mxGeometry relative="1" as="geometry" />
        </mxCell>
        <mxCell id="22CTzD5A5342r915eBUS-170" style="edgeStyle=orthogonalEdgeStyle;rounded=0;orthogonalLoop=1;jettySize=auto;html=1;entryX=0;entryY=0.5;entryDx=0;entryDy=0;labelBackgroundColor=#FFFFFF;fontFamily=Helvetica;fontSize=4;fontColor=#000000;startArrow=halfCircle;startFill=0;endArrow=async;endFill=0;strokeWidth=1;" edge="1" parent="1" source="22CTzD5A5342r915eBUS-148" target="22CTzD5A5342r915eBUS-115">
          <mxGeometry relative="1" as="geometry">
            <Array as="points">
              <mxPoint x="-520" y="490" />
            </Array>
          </mxGeometry>
        </mxCell>
        <mxCell id="22CTzD5A5342r915eBUS-148" value="Action" style="html=1;shape=mxgraph.sysml.isControl;whiteSpace=wrap;align=center;labelBackgroundColor=none;fontFamily=Helvetica;fontSize=4;fontColor=#000000;strokeColor=default;fillColor=none;gradientColor=none;" vertex="1" parent="1">
          <mxGeometry x="-580" y="385" width="120" height="60" as="geometry" />
        </mxCell>
        <mxCell id="22CTzD5A5342r915eBUS-149" value="{control}" style="edgeStyle=orthogonalEdgeStyle;html=1;elbow=vertical;endArrow=open;rounded=0;verticalAlign=bottom;endSize=12;labelBackgroundColor=#FFFFFF;fontFamily=Helvetica;fontSize=4;fontColor=#000000;strokeWidth=1;exitX=1;exitY=0.5;exitDx=0;exitDy=0;exitPerimeter=0;entryX=0;entryY=0.5;entryDx=0;entryDy=14;entryPerimeter=0;" edge="1" source="22CTzD5A5342r915eBUS-148" parent="1" target="22CTzD5A5342r915eBUS-77">
          <mxGeometry relative="1" as="geometry">
            <mxPoint x="-120" y="360" as="targetPoint" />
            <Array as="points">
              <mxPoint x="-460" y="410" />
              <mxPoint x="-330" y="410" />
              <mxPoint x="-330" y="354" />
            </Array>
          </mxGeometry>
        </mxCell>
        <mxCell id="22CTzD5A5342r915eBUS-171" value="&lt;span style=&quot;font-size: 8px&quot;&gt;Structured semantic network graph paket&lt;/span&gt;" style="shape=folder;fontStyle=1;spacingTop=10;tabWidth=40;tabHeight=14;tabPosition=left;html=1;labelBackgroundColor=none;fontFamily=Helvetica;fontSize=9;fontColor=#FFFFFF;strokeColor=default;fillColor=#CC0000;gradientColor=none;" vertex="1" parent="1">
          <mxGeometry x="118.5" y="-50" width="171.5" height="50" as="geometry" />
        </mxCell>
        <mxCell id="22CTzD5A5342r915eBUS-173" value="" style="endArrow=ERmandOne;startArrow=ERmany;endFill=0;startFill=0;endSize=8;html=1;rounded=0;fontFamily=Helvetica;fontSize=8;fontColor=#FFFFFF;exitX=0;exitY=0;exitDx=0;exitDy=23;exitPerimeter=0;entryX=0.5;entryY=1;entryDx=0;entryDy=0;entryPerimeter=0;" edge="1" parent="1" source="22CTzD5A5342r915eBUS-172" target="22CTzD5A5342r915eBUS-77">
          <mxGeometry width="160" relative="1" as="geometry">
            <mxPoint x="118.99999999999955" y="673" as="sourcePoint" />
            <mxPoint x="0.5" y="862.5" as="targetPoint" />
            <Array as="points">
              <mxPoint x="50" y="593" />
              <mxPoint y="593" />
            </Array>
          </mxGeometry>
        </mxCell>
        <mxCell id="22CTzD5A5342r915eBUS-175" style="edgeStyle=orthogonalEdgeStyle;rounded=0;orthogonalLoop=1;jettySize=auto;html=1;exitX=0;exitY=0;exitDx=20;exitDy=0;exitPerimeter=0;labelBackgroundColor=#FFFFFF;fontFamily=Helvetica;fontSize=7;fontColor=#000000;startArrow=none;startFill=0;endArrow=diamondThin;endFill=1;strokeWidth=1;" edge="1" parent="1" source="22CTzD5A5342r915eBUS-172">
          <mxGeometry relative="1" as="geometry">
            <mxPoint x="138.99999999999955" y="650.0000000000002" as="sourcePoint" />
            <mxPoint x="700" as="targetPoint" />
            <Array as="points">
              <mxPoint x="40" y="550" />
              <mxPoint x="700" y="550" />
            </Array>
          </mxGeometry>
        </mxCell>
        <mxCell id="22CTzD5A5342r915eBUS-179" value="&lt;span style=&quot;font-size: 8px&quot;&gt;dispatch&lt;/span&gt;" style="edgeLabel;html=1;align=center;verticalAlign=middle;resizable=0;points=[];fontSize=4;fontFamily=Helvetica;fontColor=#000000;" vertex="1" connectable="0" parent="22CTzD5A5342r915eBUS-175">
          <mxGeometry x="0.7679" y="-1" relative="1" as="geometry">
            <mxPoint x="-1" y="92" as="offset" />
          </mxGeometry>
        </mxCell>
        <mxCell id="22CTzD5A5342r915eBUS-172" value="&lt;span style=&quot;font-size: 8px&quot;&gt;VRP model paket&lt;/span&gt;" style="shape=folder;fontStyle=1;spacingTop=10;tabWidth=40;tabHeight=14;tabPosition=left;html=1;labelBackgroundColor=none;fontFamily=Helvetica;fontSize=9;fontColor=#FFFFFF;strokeColor=default;fillColor=#CC0000;gradientColor=none;" vertex="1" parent="1">
          <mxGeometry x="20" y="570" width="168.5" height="50" as="geometry" />
        </mxCell>
        <mxCell id="22CTzD5A5342r915eBUS-191" style="edgeStyle=orthogonalEdgeStyle;rounded=0;orthogonalLoop=1;jettySize=auto;html=1;entryX=0;entryY=0.5;entryDx=0;entryDy=0;labelBackgroundColor=#FFFFFF;fontFamily=Helvetica;fontSize=4;fontColor=#000000;startArrow=box;startFill=0;endArrow=async;endFill=0;strokeWidth=1;" edge="1" parent="1" target="22CTzD5A5342r915eBUS-186">
          <mxGeometry relative="1" as="geometry">
            <mxPoint x="1120" y="28" as="sourcePoint" />
          </mxGeometry>
        </mxCell>
        <mxCell id="22CTzD5A5342r915eBUS-192" style="edgeStyle=orthogonalEdgeStyle;rounded=0;orthogonalLoop=1;jettySize=auto;html=1;exitX=1;exitY=0.5;exitDx=0;exitDy=0;exitPerimeter=0;entryX=0;entryY=0.5;entryDx=0;entryDy=0;labelBackgroundColor=#FFFFFF;fontFamily=Helvetica;fontSize=4;fontColor=#000000;startArrow=box;startFill=0;endArrow=async;endFill=0;strokeWidth=1;" edge="1" parent="1" source="22CTzD5A5342r915eBUS-180" target="22CTzD5A5342r915eBUS-188">
          <mxGeometry relative="1" as="geometry" />
        </mxCell>
        <mxCell id="22CTzD5A5342r915eBUS-193" style="edgeStyle=orthogonalEdgeStyle;rounded=0;orthogonalLoop=1;jettySize=auto;html=1;entryX=0;entryY=0.5;entryDx=0;entryDy=0;labelBackgroundColor=#FFFFFF;fontFamily=Helvetica;fontSize=4;fontColor=#000000;startArrow=box;startFill=0;endArrow=async;endFill=0;strokeWidth=1;" edge="1" parent="1" target="22CTzD5A5342r915eBUS-189">
          <mxGeometry relative="1" as="geometry">
            <mxPoint x="1120" y="110" as="sourcePoint" />
          </mxGeometry>
        </mxCell>
        <mxCell id="22CTzD5A5342r915eBUS-180" value="&lt;span style=&quot;color: rgb(189 , 193 , 198) ; font-family: &amp;#34;arial&amp;#34; , sans-serif ; font-size: 14px ; text-align: left ; background-color: rgb(32 , 33 , 36)&quot;&gt;decentralised application (&lt;/span&gt;&lt;span style=&quot;font-weight: bold ; color: rgb(188 , 192 , 195) ; font-family: &amp;#34;arial&amp;#34; , sans-serif ; font-size: 14px ; text-align: left ; background-color: rgb(32 , 33 , 36)&quot;&gt;DApp)&lt;/span&gt;" style="shape=mxgraph.sysml.actFinal;html=1;verticalLabelPosition=bottom;labelBackgroundColor=#ffffff;verticalAlign=top;fontFamily=Helvetica;fontSize=4;fontColor=#000000;strokeColor=default;fillColor=none;gradientColor=none;" vertex="1" parent="1">
          <mxGeometry x="1000" y="11.5" width="120" height="117" as="geometry" />
        </mxCell>
        <mxCell id="22CTzD5A5342r915eBUS-184" value="&lt;span style=&quot;color: rgb(189 , 193 , 198) ; font-family: &amp;#34;arial&amp;#34; , sans-serif ; font-size: 16px ; text-align: left ; background-color: rgb(32 , 33 , 36)&quot;&gt;&amp;nbsp;&lt;/span&gt;&lt;b style=&quot;color: rgb(189 , 193 , 198) ; font-family: &amp;#34;arial&amp;#34; , sans-serif ; font-size: 16px ; text-align: left ; background-color: rgb(32 , 33 , 36)&quot;&gt;decentralized&lt;br&gt;autonomous&lt;br&gt;organization&lt;br&gt;&lt;/b&gt;&lt;span style=&quot;color: rgb(189 , 193 , 198) ; font-family: &amp;#34;arial&amp;#34; , sans-serif ; font-size: 16px ; text-align: left ; background-color: rgb(32 , 33 , 36)&quot;&gt;(DAO)&lt;/span&gt;" style="shape=mxgraph.sysml.actFinal;html=1;verticalLabelPosition=bottom;labelBackgroundColor=#ffffff;verticalAlign=top;fontFamily=Helvetica;fontSize=4;fontColor=#000000;strokeColor=default;fillColor=none;gradientColor=none;" vertex="1" parent="1">
          <mxGeometry x="1015" y="171.25" width="90" height="91.25" as="geometry" />
        </mxCell>
        <mxCell id="22CTzD5A5342r915eBUS-194" style="edgeStyle=orthogonalEdgeStyle;rounded=0;orthogonalLoop=1;jettySize=auto;html=1;entryX=0;entryY=0.5;entryDx=0;entryDy=0;labelBackgroundColor=#FFFFFF;fontFamily=Helvetica;fontSize=4;fontColor=#000000;startArrow=dash;startFill=0;endArrow=async;endFill=0;strokeWidth=1;exitX=0.855;exitY=0.145;exitDx=0;exitDy=0;exitPerimeter=0;" edge="1" target="22CTzD5A5342r915eBUS-198" parent="1" source="22CTzD5A5342r915eBUS-184">
          <mxGeometry relative="1" as="geometry">
            <mxPoint x="1110" y="190" as="sourcePoint" />
          </mxGeometry>
        </mxCell>
        <mxCell id="22CTzD5A5342r915eBUS-195" style="edgeStyle=orthogonalEdgeStyle;rounded=0;orthogonalLoop=1;jettySize=auto;html=1;exitX=1;exitY=0.5;exitDx=0;exitDy=0;exitPerimeter=0;entryX=0;entryY=0.5;entryDx=0;entryDy=0;labelBackgroundColor=#FFFFFF;fontFamily=Helvetica;fontSize=4;fontColor=#000000;startArrow=dash;startFill=0;endArrow=async;endFill=0;strokeWidth=1;" edge="1" target="22CTzD5A5342r915eBUS-199" parent="1" source="22CTzD5A5342r915eBUS-184">
          <mxGeometry relative="1" as="geometry">
            <mxPoint x="1120" y="340.0000000000002" as="sourcePoint" />
            <Array as="points">
              <mxPoint x="1150" y="217" />
              <mxPoint x="1150" y="340" />
            </Array>
          </mxGeometry>
        </mxCell>
        <mxCell id="22CTzD5A5342r915eBUS-196" style="edgeStyle=orthogonalEdgeStyle;rounded=0;orthogonalLoop=1;jettySize=auto;html=1;entryX=0;entryY=0.5;entryDx=0;entryDy=0;labelBackgroundColor=#FFFFFF;fontFamily=Helvetica;fontSize=4;fontColor=#000000;startArrow=dash;startFill=0;endArrow=async;endFill=0;strokeWidth=1;exitX=0.855;exitY=0.855;exitDx=0;exitDy=0;exitPerimeter=0;" edge="1" target="22CTzD5A5342r915eBUS-200" parent="1" source="22CTzD5A5342r915eBUS-184">
          <mxGeometry relative="1" as="geometry">
            <mxPoint x="1120" y="380" as="sourcePoint" />
            <Array as="points">
              <mxPoint x="1130" y="249" />
              <mxPoint x="1130" y="420" />
            </Array>
          </mxGeometry>
        </mxCell>
        <mxCell id="22CTzD5A5342r915eBUS-197" value="" style="group" vertex="1" connectable="0" parent="1">
          <mxGeometry x="1220" y="240" width="120" height="202.5" as="geometry" />
        </mxCell>
        <mxCell id="22CTzD5A5342r915eBUS-198" value="&lt;p style=&quot;margin: 0px ; margin-top: 4px ; text-align: center&quot;&gt;&amp;lt;&amp;lt;S 0.1&amp;gt;&amp;gt;&lt;br&gt;&lt;b&gt;Macroservice&lt;/b&gt;&lt;br&gt;&lt;/p&gt;&lt;hr&gt;&lt;p style=&quot;margin: 0px ; margin-left: 8px ; text-align: left&quot;&gt;Community of Commonwealth Paradigms=&quot;...&quot;&lt;br&gt;&lt;br&gt;&lt;br&gt;&lt;/p&gt;&lt;p style=&quot;margin: 0px ; margin-left: 8px ; text-align: left&quot;&gt;&lt;br&gt;&lt;/p&gt;" style="shape=rect;html=1;overflow=fill;whiteSpace=wrap;labelBackgroundColor=none;fontFamily=Helvetica;fontSize=4;fontColor=#000000;strokeColor=default;fillColor=none;gradientColor=none;" vertex="1" parent="22CTzD5A5342r915eBUS-197">
          <mxGeometry width="120" height="45" as="geometry" />
        </mxCell>
        <mxCell id="22CTzD5A5342r915eBUS-199" value="&lt;p style=&quot;margin: 0px ; margin-top: 4px ; text-align: center&quot;&gt;&amp;lt;&amp;lt;S 0.2&amp;gt;&amp;gt;&lt;br&gt;&lt;b&gt;Macroservice&lt;/b&gt;&lt;br&gt;&lt;/p&gt;&lt;hr&gt;&lt;p style=&quot;margin: 0px ; margin-left: 8px ; text-align: left&quot;&gt;Referendum for the owner&amp;nbsp;&lt;span&gt;group&lt;/span&gt;&lt;span&gt;&quot;...&quot;&lt;/span&gt;&lt;/p&gt;&lt;p style=&quot;margin: 0px ; margin-left: 8px ; text-align: left&quot;&gt;Referendum to build a new paradigm of knowledge=&quot;...&quot;&lt;br&gt;&lt;/p&gt;&lt;p style=&quot;margin: 0px ; margin-left: 8px ; text-align: left&quot;&gt;Voting to give originality to the members&#39; reasoning model&lt;span&gt;=&quot;...&quot;&lt;/span&gt;&lt;/p&gt;&lt;p style=&quot;margin: 0px ; margin-left: 8px ; text-align: left&quot;&gt;Vote for side mergers=&quot;...&quot;&lt;br&gt;&lt;br&gt;&lt;/p&gt;&lt;p style=&quot;margin: 0px ; margin-left: 8px ; text-align: left&quot;&gt;&lt;br&gt;&lt;/p&gt;" style="shape=rect;html=1;overflow=fill;whiteSpace=wrap;labelBackgroundColor=none;fontFamily=Helvetica;fontSize=4;fontColor=#000000;strokeColor=default;fillColor=none;gradientColor=none;" vertex="1" parent="22CTzD5A5342r915eBUS-197">
          <mxGeometry y="77.5" width="120" height="45" as="geometry" />
        </mxCell>
        <mxCell id="22CTzD5A5342r915eBUS-200" value="&lt;p style=&quot;margin: 0px ; margin-top: 4px ; text-align: center&quot;&gt;&amp;lt;&amp;lt;S 0.3&amp;gt;&amp;gt;&lt;br&gt;&lt;b&gt;Macroservice&lt;/b&gt;&lt;br&gt;&lt;/p&gt;&lt;hr&gt;&lt;p style=&quot;margin: 0px ; margin-left: 8px ; text-align: left&quot;&gt;Manifesto of Democracy of Collective Intelligence=&quot;...&quot;&lt;br&gt;&lt;br&gt;&lt;/p&gt;&lt;div&gt;&lt;span&gt;&lt;br&gt;&lt;/span&gt;&lt;/div&gt;&lt;p style=&quot;margin: 0px ; margin-left: 8px ; text-align: left&quot;&gt;&lt;br&gt;&lt;/p&gt;&lt;p style=&quot;margin: 0px ; margin-left: 8px ; text-align: left&quot;&gt;&lt;br&gt;&lt;/p&gt;" style="shape=rect;html=1;overflow=fill;whiteSpace=wrap;labelBackgroundColor=none;fontFamily=Helvetica;fontSize=4;fontColor=#000000;strokeColor=default;fillColor=none;gradientColor=none;" vertex="1" parent="22CTzD5A5342r915eBUS-197">
          <mxGeometry y="157.5" width="120" height="45" as="geometry" />
        </mxCell>
        <mxCell id="22CTzD5A5342r915eBUS-186" value="&lt;p style=&quot;margin: 0px ; margin-top: 4px ; text-align: center&quot;&gt;&amp;lt;&amp;lt;S 0.1&amp;gt;&amp;gt;&lt;br&gt;&lt;b&gt;Macroservice&lt;/b&gt;&lt;br&gt;&lt;/p&gt;&lt;hr&gt;&lt;p style=&quot;margin: 0px ; margin-left: 8px ; text-align: left&quot;&gt;User profile=&quot;...&quot;&lt;br&gt;Membership=&quot;...&quot;&lt;br&gt;Side connection=&quot;...&quot;&lt;br&gt;Graph sharing=&quot;...&quot;&lt;br&gt;&lt;br&gt;&lt;/p&gt;&lt;p style=&quot;margin: 0px ; margin-left: 8px ; text-align: left&quot;&gt;&lt;br&gt;&lt;/p&gt;" style="shape=rect;html=1;overflow=fill;whiteSpace=wrap;labelBackgroundColor=none;fontFamily=Helvetica;fontSize=4;fontColor=#000000;strokeColor=default;fillColor=none;gradientColor=none;" vertex="1" parent="1">
          <mxGeometry x="1220" y="-30" width="120" height="45" as="geometry" />
        </mxCell>
        <mxCell id="22CTzD5A5342r915eBUS-188" value="&lt;p style=&quot;margin: 0px ; margin-top: 4px ; text-align: center&quot;&gt;&amp;lt;&amp;lt;S 0.2&amp;gt;&amp;gt;&lt;br&gt;&lt;b&gt;Macroservice&lt;/b&gt;&lt;br&gt;&lt;/p&gt;&lt;hr&gt;&lt;p style=&quot;margin: 0px ; margin-left: 8px ; text-align: left&quot;&gt;Fake Id&quot;...&quot;&lt;br&gt;Anonymous chat=&quot;...&quot;&lt;br&gt;&lt;/p&gt;&lt;p style=&quot;margin: 0px ; margin-left: 8px ; text-align: left&quot;&gt;Chanel server&lt;span&gt;=&quot;...&quot;&lt;/span&gt;&lt;/p&gt;&lt;p style=&quot;margin: 0px ; margin-left: 8px ; text-align: left&quot;&gt;Group server=&quot;...&quot;&lt;br&gt;&lt;br&gt;&lt;/p&gt;&lt;p style=&quot;margin: 0px ; margin-left: 8px ; text-align: left&quot;&gt;&lt;br&gt;&lt;/p&gt;" style="shape=rect;html=1;overflow=fill;whiteSpace=wrap;labelBackgroundColor=none;fontFamily=Helvetica;fontSize=4;fontColor=#000000;strokeColor=default;fillColor=none;gradientColor=none;" vertex="1" parent="1">
          <mxGeometry x="1220" y="47.5" width="120" height="45" as="geometry" />
        </mxCell>
        <mxCell id="22CTzD5A5342r915eBUS-189" value="&lt;p style=&quot;margin: 0px ; margin-top: 4px ; text-align: center&quot;&gt;&amp;lt;&amp;lt;S 0.3&amp;gt;&amp;gt;&lt;br&gt;&lt;b&gt;Macroservice&lt;/b&gt;&lt;br&gt;&lt;/p&gt;&lt;hr&gt;&lt;p style=&quot;margin: 0px ; margin-left: 8px ; text-align: left&quot;&gt;Post sharing=&quot;...&quot;&lt;br&gt;Activity stream=&quot;...&quot;&lt;br&gt;Comment=&quot;...&quot;&lt;br&gt;Post reply=&quot;...&quot;&lt;/p&gt;&lt;p style=&quot;margin: 0px ; margin-left: 8px ; text-align: left&quot;&gt;Annotate comment&lt;span&gt;=&quot;...&quot;&lt;/span&gt;&lt;/p&gt;&lt;p style=&quot;margin: 0px ; margin-left: 8px ; text-align: left&quot;&gt;Backing badge=&quot;...&quot;&lt;/p&gt;&lt;p style=&quot;margin: 0px ; margin-left: 8px ; text-align: left&quot;&gt;Libel badge=&quot;...&quot;&lt;/p&gt;&lt;div&gt;&lt;span&gt;&lt;br&gt;&lt;/span&gt;&lt;/div&gt;&lt;p style=&quot;margin: 0px ; margin-left: 8px ; text-align: left&quot;&gt;&lt;br&gt;&lt;/p&gt;&lt;p style=&quot;margin: 0px ; margin-left: 8px ; text-align: left&quot;&gt;&lt;br&gt;&lt;/p&gt;" style="shape=rect;html=1;overflow=fill;whiteSpace=wrap;labelBackgroundColor=none;fontFamily=Helvetica;fontSize=4;fontColor=#000000;strokeColor=default;fillColor=none;gradientColor=none;" vertex="1" parent="1">
          <mxGeometry x="1220" y="127.5" width="120" height="62.5" as="geometry" />
        </mxCell>
        <mxCell id="22CTzD5A5342r915eBUS-201" value="V://0.1" style="text;strokeColor=none;fillColor=none;html=1;fontSize=24;fontStyle=1;verticalAlign=middle;align=center;" vertex="1" parent="1">
          <mxGeometry x="210" y="-320" width="620" height="70" as="geometry" />
        </mxCell>
      </root>
    </mxGraphModel>
  </diagram>
</mxfile>
